<?xml version="1.0" encoding="UTF-8"?>
<!-- Generator: Adobe Illustrator 24.2.1, SVG Export Plug-In . SVG Version: 6.00 Build 0)  -->
<svg version="1.1" id="Capa_1" xmlns="http://www.w3.org/2000/svg" xmlns:xlink="http://www.w3.org/1999/xlink" x="0px" y="0px" viewBox="0 0 638 443.2" style="enable-background:new 0 0 638 443.2;" xml:space="preserve">
<style type="text/css">
	.st0{fill:#562674;}
	.st1{fill:#71154C;}
	.st2{fill:#066938;}
	.st3{fill:#452776;}
	.st4{fill:#9B1560;}
	.st5{fill:#009841;}
	.st6{fill:#24387D;}
	.st7{fill:#5C8ECB;}
	.st8{fill:#43AD4C;}
	.st9{fill:#181B2E;}
	.st10{fill:#F6DB3F;}
	.st11{fill:#D31A16;}
	.st12{fill:#F39020;}
	.st13{fill:#B6191B;}
	.st14{fill:#F2A122;}
	.st15{fill:#EF7D12;}
	.st16{fill:#EA5A25;}
	.st17{fill:#881819;}
	.st18{fill:#F1D40B;}
	.st19{fill:#020203;}
</style>
<g>
	<g>
		<g>
			<g>
				<path class="st0" d="M86.7,180.6c-1.7,0-3.5-0.5-5.1-1.5c-4.3-2.8-5.5-8.6-2.7-12.9c7.5-11.5,15.9-22.6,24.9-32.9      c3.4-3.8,9.3-4.3,13.1-0.9c3.8,3.4,4.3,9.3,0.9,13.2c-8.5,9.7-16.4,20-23.4,30.8C92.7,179.1,89.8,180.6,86.7,180.6z"/>
			</g>
			<g>
				<g>
					<path class="st1" d="M152.6,109.3c-2.9,0-5.7-1.3-7.5-3.8c-3.1-4.1-2.2-10,1.9-13c11-8.2,22.7-15.7,34.8-22.2       c4.5-2.4,10.1-0.8,12.6,3.8c2.4,4.5,0.8,10.2-3.8,12.7c-11.3,6.1-22.2,13.1-32.5,20.8C156.5,108.7,154.6,109.3,152.6,109.3z"/>
				</g>
			</g>
			<g>
				<path class="st2" d="M244.7,63.6c-4.1,0-7.9-2.7-9-6.9c-1.3-5,1.6-10.1,6.6-11.5c13.2-3.6,26.9-6.3,40.5-8      c5.1-0.6,9.8,3.1,10.4,8.1c0.6,5.2-3,9.8-8.1,10.4c-12.8,1.6-25.5,4-37.9,7.4C246.3,63.5,245.5,63.6,244.7,63.6z"/>
			</g>
			<g>
				<path class="st3" d="M56.3,243.8c-1,0-2-0.2-3-0.5c-4.9-1.7-7.5-6.9-5.9-11.8c1.7-5.2,3.7-10.6,5.8-15.7      c1.9-4.8,7.3-7.1,12.2-5.2c4.8,1.9,7.1,7.3,5.2,12.2c-1.9,4.8-3.8,9.8-5.4,14.7C63.8,241.3,60.1,243.8,56.3,243.8z"/>
			</g>
			<g>
				<g>
					<path class="st4" d="M154.4,176.2c-2.3,0-4.6-0.9-6.4-2.5c-3.8-3.5-3.9-9.4-0.4-13.2c10.1-10.7,21.2-20.5,33-29.1       c4.2-3.1,10-2.1,13,2c3.1,4.2,2.1,10-2,13c-10.9,8-21.2,17-30.4,26.9C159.4,175.3,157,176.2,154.4,176.2z"/>
				</g>
			</g>
			<g>
				<path class="st5" d="M241,118.5c-3.8,0-7.3-2.4-8.7-6.1c-1.7-4.8,0.8-10.2,5.6-12c13.8-5,28.1-8.7,42.5-11.1      c5.1-0.9,9.9,2.6,10.7,7.7c0.9,5.1-2.6,9.9-7.7,10.8c-13.3,2.2-26.5,5.6-39.2,10.2C243.1,118.3,242,118.5,241,118.5z"/>
			</g>
			<g>
				<g>
					<path class="st6" d="M110.4,243.8c-1.2,0-2.4-0.3-3.6-0.7c-4.7-2-7-7.5-5-12.2c3.6-8.5,7.7-16.8,12.2-24.8       c2.5-4.5,8.2-6,12.7-3.5c4.5,2.5,6,8.2,3.5,12.8c-4.2,7.3-8,15-11.3,22.9C117.5,241.7,114.1,243.8,110.4,243.8z"/>
				</g>
			</g>
			<g>
				<g>
					<path class="st7" d="M166.9,243.8c-1.6,0-3.1-0.4-4.6-1.2c-4.5-2.6-5.9-8.3-3.4-12.8c8-13.8,17.8-26.6,29-38       c3.6-3.7,9.5-3.7,13.2-0.1c3.7,3.7,3.7,9.5,0.1,13.2c-10.1,10.2-18.9,21.7-26.1,34.1C173.2,242.1,170.2,243.8,166.9,243.8z"/>
				</g>
			</g>
			<g>
				<g>
					<path class="st8" d="M246.6,170.6c-3.6,0-7-2.1-8.6-5.6c-2.1-4.7,0.1-10.2,4.7-12.3c14.6-6.5,30-11,45.8-13.6       c5.1-0.8,9.9,2.6,10.7,7.8c0.8,5.1-2.6,9.9-7.7,10.7c-14.2,2.3-28.1,6.4-41.2,12.2C249.1,170.3,247.9,170.6,246.6,170.6z"/>
				</g>
			</g>
			<g>
				<ellipse class="st9" cx="319" cy="147.5" rx="9.4" ry="9.4"/>
			</g>
			<g>
				<ellipse class="st9" cx="218.4" cy="180.1" rx="9.4" ry="9.4"/>
			</g>
			<g>
				<g>
					<path class="st10" d="M471.1,243.8c-3.2,0-6.4-1.7-8-4.6c-7.2-12.4-15.9-23.9-26.1-34.1c-3.6-3.7-3.6-9.5,0.1-13.2       c3.7-3.7,9.5-3.6,13.2,0.1c11.3,11.4,21,24.1,29,38c2.5,4.5,1,10.1-3.4,12.8C474.3,243.4,472.6,243.8,471.1,243.8z"/>
				</g>
			</g>
			<g>
				<path class="st11" d="M391.5,170.6c-1.2,0-2.5-0.3-3.8-0.8c-13.1-5.8-26.9-9.9-41.2-12.2c-5.1-0.8-8.6-5.6-7.7-10.7      c0.8-5.1,5.6-8.6,10.7-7.8c15.7,2.5,31.1,7.1,45.8,13.6c4.7,2.1,6.8,7.6,4.7,12.3C398.5,168.5,395,170.6,391.5,170.6z"/>
			</g>
			<g>
				<ellipse class="st9" cx="419.6" cy="180.1" rx="9.4" ry="9.4"/>
			</g>
			<g>
				<ellipse class="st9" cx="136.7" cy="187.7" rx="9.4" ry="9.4"/>
			</g>
			<g>
				<ellipse class="st9" cx="212.6" cy="121.5" rx="9.4" ry="9.4"/>
			</g>
			<g>
				<ellipse class="st9" cx="319" cy="94.7" rx="9.4" ry="9.4"/>
			</g>
			<g>
				<path class="st12" d="M483.5,176.2c-2.4,0-5-1-6.8-2.9c-9.3-9.9-19.5-18.9-30.4-26.9c-4.2-3.1-5.1-8.8-2-13      c3.1-4.2,8.8-5.1,13-2c11.8,8.7,22.9,18.5,33,29.1c3.5,3.8,3.3,9.6-0.4,13.2C488.1,175.5,485.9,176.2,483.5,176.2z"/>
			</g>
			<g>
				<path class="st13" d="M397.1,118.5c-1,0-2.1-0.2-3.1-0.5c-12.7-4.6-25.9-8-39.2-10.2c-5.1-0.9-8.5-5.6-7.7-10.8      c0.8-5.2,5.6-8.6,10.7-7.7c14.4,2.4,28.8,6.1,42.5,11.1c4.8,1.7,7.3,7.1,5.6,12C404.4,116.1,400.8,118.5,397.1,118.5z"/>
			</g>
			<g>
				<path class="st14" d="M527.6,243.8c-3.7,0-7.1-2.1-8.6-5.7c-3.3-7.8-7.1-15.5-11.3-22.9c-2.5-4.5-1-10.1,3.5-12.8      c4.5-2.5,10.1-1,12.7,3.5c4.5,8,8.7,16.4,12.2,24.8c2,4.7-0.2,10.2-5,12.2C530,243.6,528.8,243.8,527.6,243.8z"/>
			</g>
			<g>
				<ellipse class="st9" cx="501.3" cy="187.7" rx="9.4" ry="9.4"/>
			</g>
			<g>
				<ellipse class="st9" cx="425.4" cy="121.5" rx="9.4" ry="9.4"/>
			</g>
			<g>
				<ellipse class="st9" cx="71.4" cy="196.5" rx="9.4" ry="9.4"/>
			</g>
			<g>
				<ellipse class="st9" cx="129.7" cy="119.5" rx="9.4" ry="9.4"/>
			</g>
			<g>
				<ellipse class="st9" cx="215.1" cy="64.4" rx="9.4" ry="9.4"/>
			</g>
			<g>
				<ellipse class="st9" cx="319" cy="44.2" rx="9.4" ry="9.4"/>
			</g>
			<g>
				<path class="st15" d="M551.3,180.6c-3.1,0-6-1.5-7.8-4.2c-7-10.8-14.9-21.2-23.4-30.8c-3.4-3.8-3-9.8,0.9-13.2      c3.8-3.4,9.8-3.1,13.1,0.9c9.1,10.3,17.5,21.4,24.9,32.9c2.8,4.3,1.6,10.1-2.7,12.9C554.8,180.2,553.1,180.6,551.3,180.6z"/>
			</g>
			<g>
				<g>
					<path class="st16" d="M485.3,109.3c-1.9,0-3.8-0.6-5.6-1.8c-10.3-7.7-21.3-14.7-32.5-20.8c-4.5-2.4-6.2-8.1-3.8-12.7       c2.4-4.5,8.1-6.2,12.6-3.8c12.1,6.6,23.8,14,34.8,22.2c4.1,3.1,5,8.9,1.9,13C491,108,488.2,109.3,485.3,109.3z"/>
				</g>
			</g>
			<g>
				<path class="st17" d="M393.3,63.6c-0.8,0-1.7-0.1-2.4-0.3c-12.4-3.3-25.1-5.9-37.9-7.4c-5.1-0.6-8.7-5.2-8.1-10.4      s5.2-8.7,10.4-8.1c13.6,1.7,27.3,4.4,40.5,8c5,1.3,7.9,6.5,6.6,11.5C401.2,60.8,397.4,63.6,393.3,63.6z"/>
			</g>
			<g>
				<path class="st18" d="M581.8,243.8c-3.9,0-7.5-2.4-8.8-6.4c-1.7-4.9-3.5-9.9-5.4-14.7c-1.9-4.8,0.4-10.2,5.2-12.2      c4.8-1.9,10.2,0.4,12.2,5.2c2.1,5.2,4,10.4,5.8,15.7c1.7,4.9-1,10.1-5.9,11.8C583.8,243.7,582.8,243.8,581.8,243.8z"/>
			</g>
			<g>
				<ellipse class="st9" cx="566.6" cy="196.5" rx="9.4" ry="9.4"/>
			</g>
			<g>
				<ellipse class="st9" cx="508.3" cy="119.5" rx="9.4" ry="9.4"/>
			</g>
			<g>
				<ellipse class="st9" cx="422.9" cy="64.4" rx="9.4" ry="9.4"/>
			</g>
		</g>
		<g>
			<path class="st19" d="M55.9,338.7c2.7,2.7,5.9,4.8,9.5,6.3c3.6,1.5,7.4,2.2,11.6,2.2c2.1,0,4.3-0.3,6.5-0.7     c2.1-0.4,4.2-1.1,6.1-1.9c1.9-0.9,3.7-1.7,5.1-2.6c0.6-0.3,1.1-1,1.1-1.7c0.1-0.7-0.1-1.4-0.5-2c-0.5-0.5-1.1-0.9-1.7-1     c-0.7-0.1-1.3,0-1.8,0.3c-2.2,1.4-4.6,2.4-7,3.2s-5.1,1.2-7.9,1.2c-3.4,0-6.6-0.6-9.5-1.8c-2.9-1.2-5.5-3-7.8-5.2     c-2.3-2.3-4-5-5.3-8.1c-1.2-3.2-1.8-6.7-1.8-10.6c0-3.8,0.6-7.2,1.8-10.3c1.2-3.1,3-5.9,5.2-8.1c2.2-2.3,4.8-4.1,7.8-5.3     c3-1.2,6.2-1.8,9.7-1.8c2.8,0,5.4,0.4,8,1.2c2.5,0.8,4.8,1.9,6.9,3.3c0.6,0.3,1.2,0.3,1.8,0.3c0.6,0,1.1-0.3,1.5-0.9     c0.5-0.7,0.7-1.4,0.6-2.1c-0.2-0.7-0.5-1.3-1.2-1.7c-2.4-1.7-5.2-3-8.1-3.8c-3-1-6.1-1.4-9.4-1.4c-4.2,0-8,0.7-11.7,2.3     c-3.6,1.6-6.8,3.7-9.5,6.5c-2.8,2.8-4.9,6-6.5,9.7c-1.6,3.8-2.4,7.8-2.4,12.2c0,4.6,0.8,8.8,2.4,12.6     C50.9,332.8,53.1,336,55.9,338.7z"/>
			<path class="st19" d="M110.8,338.4c2.6,2.7,5.6,4.9,9.1,6.4c3.5,1.5,7.3,2.3,11.5,2.3c4.1,0,8-0.8,11.5-2.3     c3.5-1.5,6.6-3.6,9.1-6.4c2.5-2.7,4.6-5.9,6-9.7c1.4-3.7,2.1-7.9,2.1-12.3s-0.7-8.7-2.1-12.3c-1.4-3.7-3.4-7-6-9.7     c-2.5-2.7-5.6-4.9-9.1-6.4c-3.5-1.5-7.3-2.3-11.5-2.3c-4.2,0-8,0.8-11.5,2.3c-3.5,1.5-6.6,3.6-9.1,6.4c-2.5,2.7-4.5,5.9-5.9,9.7     c-1.4,3.8-2.1,7.9-2.1,12.3s0.7,8.6,2.1,12.3C106.2,332.3,108.2,335.6,110.8,338.4z M111.3,302.9c2-3.8,4.7-6.8,8.2-9     c3.5-2.2,7.5-3.2,12-3.2c4.6,0,8.6,1,12,3.2c3.4,2.2,6.1,5.2,8.1,9c2,3.8,3,8.3,3,13.4s-1,9.5-3,13.4c-2,3.8-4.7,6.8-8.1,9     c-3.4,2.2-7.4,3.2-12,3.2c-4.5,0-8.5-1-12-3.2c-3.5-2.2-6.3-5.2-8.2-9c-2-3.8-3-8.3-3-13.4S109.4,306.8,111.3,302.9z"/>
			<path class="st19" d="M215.9,286.4c-0.6,0-1.2,0.3-1.7,0.6c-0.4,0.5-0.7,1-0.7,1.7v48.1l-36.8-49.6c-0.3-0.3-0.5-0.5-1-0.7     c-0.4-0.1-0.8-0.2-1.1-0.2c-0.7,0-1.2,0.3-1.7,0.7c-0.4,0.4-0.7,1-0.7,1.8v54.9c0,0.7,0.2,1.2,0.6,1.7c0.4,0.4,1.1,0.7,1.7,0.7     c0.7,0,1.3-0.3,1.8-0.7c0.4-0.5,0.7-1.1,0.7-1.7v-47.8l36.7,49.4c0.2,0.3,0.5,0.4,0.9,0.6c0.3,0.1,0.7,0.2,1.1,0.2     c0.7,0,1.3-0.2,1.8-0.7c0.5-0.5,0.8-1.1,0.8-2v-54.7c0-0.7-0.2-1.3-0.6-1.7C217.2,286.7,216.6,286.4,215.9,286.4z"/>
			<path class="st19" d="M229.5,290.3l22.7,54.4c0.2,0.5,0.5,1,1,1.2c0.5,0.3,1,0.4,1.5,0.4c0.5,0,1-0.2,1.4-0.4     c0.5-0.3,0.9-0.8,1.1-1.3l22.8-54.5c0.2-0.5,0.3-0.9,0.3-1.2c0-0.8-0.2-1.4-0.7-1.8c-0.5-0.4-1.1-0.7-1.9-0.7     c-1,0-1.8,0.6-2.5,1.7l-20.3,49.6l-20.6-49.4c-0.5-1.2-1.3-1.8-2.5-1.8c-0.6,0-1.2,0.3-1.7,0.7c-0.6,0.4-0.9,1-0.9,1.8     c0,0.3,0,0.4,0.1,0.7C229.3,289.9,229.4,290.1,229.5,290.3z"/>
			<path class="st19" d="M293.8,346.3h31.3c0.7,0,1.3-0.3,1.8-0.7c0.5-0.5,0.8-1.1,0.8-1.8c0-0.7-0.3-1.3-0.8-1.8     c-0.4-0.5-1.1-0.8-1.8-0.8h-28.4v-23.2h24.6c0.7,0,1.3-0.3,1.8-0.7c0.5-0.5,0.8-1.1,0.8-1.8c0-0.6-0.3-1.2-0.8-1.7     c-0.4-0.5-1.1-0.8-1.8-0.8h-24.6v-21.4h28.4c0.7,0,1.3-0.3,1.8-0.7c0.5-0.4,0.8-1,0.8-1.7c0-0.7-0.3-1.3-0.8-1.8     c-0.4-0.4-1.1-0.7-1.8-0.7h-31.3c-0.7,0-1.3,0.3-1.8,0.7c-0.4,0.5-0.7,1.1-0.7,1.8v54.7c0,0.7,0.2,1.3,0.7,1.8     C292.5,346,293.1,346.3,293.8,346.3z"/>
			<path class="st19" d="M342.2,346.3c0.7,0,1.3-0.3,1.8-0.7c0.4-0.5,0.7-1.1,0.7-1.7v-47.8l36.7,49.3c0.2,0.3,0.5,0.4,0.9,0.6     c0.3,0.1,0.7,0.2,1.1,0.2c0.7,0,1.3-0.2,1.8-0.7c0.5-0.5,0.8-1.1,0.8-2v-54.7c0-0.7-0.2-1.3-0.6-1.7c-0.4-0.4-1-0.7-1.7-0.7     c-0.7,0-1.2,0.3-1.7,0.7c-0.4,0.5-0.7,1-0.7,1.7v48.1l-36.8-49.6c-0.3-0.3-0.5-0.6-1-0.7c-0.4-0.1-0.8-0.2-1.1-0.2     c-0.7,0-1.2,0.3-1.7,0.7c-0.4,0.4-0.7,1-0.7,1.8V344c0,0.7,0.2,1.2,0.6,1.7C340.9,346.1,341.5,346.3,342.2,346.3z"/>
			<path class="st19" d="M434.6,346.5c2.1-0.4,4.2-1.1,6.1-1.9c1.9-0.9,3.7-1.7,5.1-2.6c0.6-0.3,1.1-1,1.1-1.7     c0.1-0.7-0.1-1.4-0.5-2c-0.5-0.5-1-0.9-1.7-1c-0.7-0.1-1.3,0-1.8,0.3c-2.2,1.4-4.5,2.4-7,3.2s-5.1,1.2-7.9,1.2     c-3.4,0-6.6-0.6-9.5-1.8c-2.9-1.2-5.5-3-7.8-5.2c-2.3-2.3-4-5-5.2-8.1c-1.2-3.2-1.8-6.7-1.8-10.6c0-3.8,0.6-7.2,1.8-10.3     c1.2-3.1,3-5.9,5.2-8.1c2.2-2.3,4.8-4.1,7.8-5.3c3-1.2,6.2-1.8,9.7-1.8c2.8,0,5.4,0.4,8,1.2c2.5,0.8,4.8,1.9,6.9,3.3     c0.6,0.3,1.2,0.3,1.8,0.3c0.6,0,1-0.3,1.5-0.9c0.5-0.7,0.7-1.4,0.6-2.1c-0.2-0.7-0.5-1.3-1.2-1.7c-2.4-1.7-5.2-3-8.1-3.8     c-3-1-6.1-1.4-9.4-1.4c-4.2,0-8.1,0.7-11.7,2.3c-3.6,1.6-6.8,3.7-9.5,6.5c-2.8,2.8-4.9,6-6.5,9.7c-1.6,3.8-2.4,7.8-2.4,12.2     c0,4.6,0.8,8.8,2.4,12.6c1.6,3.8,3.8,7,6.6,9.7c2.7,2.7,6,4.8,9.5,6.3c3.6,1.5,7.4,2.2,11.6,2.2     C430.2,347.2,432.4,347,434.6,346.5z"/>
			<path class="st19" d="M460.6,346.3c0.7,0,1.3-0.3,1.8-0.8c0.5-0.4,0.8-1.1,0.9-1.8v-54.5c0-0.7-0.3-1.3-0.8-1.8     c-0.5-0.5-1.1-0.8-1.8-0.8c-0.8,0-1.4,0.3-1.9,0.8c-0.5,0.4-0.8,1.1-0.8,1.8v54.5c0,0.7,0.3,1.3,0.7,1.8     C459.1,346,459.7,346.3,460.6,346.3z"/>
			<path class="st19" d="M530.5,328.7c1.4-3.7,2.1-7.9,2.1-12.3s-0.7-8.7-2.1-12.3c-1.4-3.7-3.4-7-5.9-9.7c-2.5-2.7-5.6-4.9-9.1-6.4     c-3.5-1.5-7.3-2.3-11.5-2.3c-4.2,0-8.1,0.8-11.6,2.3c-3.5,1.5-6.6,3.7-9.1,6.4c-2.5,2.7-4.6,5.9-6,9.7c-1.4,3.8-2.1,7.9-2.1,12.3     s0.7,8.6,2.1,12.3c1.4,3.7,3.4,6.9,6,9.7c2.6,2.7,5.6,4.9,9.1,6.4c3.5,1.5,7.4,2.3,11.6,2.3c4.1,0,8-0.8,11.5-2.3     c3.5-1.5,6.6-3.6,9.1-6.4C527.1,335.7,529.1,332.4,530.5,328.7z M516,338.7c-3.4,2.2-7.4,3.2-12,3.2c-4.5,0-8.5-1-12-3.2     c-3.5-2.2-6.3-5.2-8.2-9c-2-3.8-3-8.3-3-13.4s1-9.5,3-13.4c2-3.8,4.7-6.8,8.2-9c3.5-2.2,7.5-3.2,12-3.2c4.5,0,8.6,1,12,3.2     c3.4,2.2,6.1,5.2,8.1,9c2,3.8,3,8.3,3,13.4s-1,9.5-3,13.4C522.1,333.6,519.4,336.5,516,338.7z"/>
			<path class="st19" d="M504.1,282.5c0.3,0,0.7-0.1,1,0.1c0.3-0.1,0.6-0.3,0.9-0.3l8.4-4.2c0.5-0.3,1-0.6,1.2-1.1     c0.3-0.5,0.4-1,0.4-1.6c0-0.7-0.2-1.3-0.7-1.8c-0.5-0.4-1.1-0.7-1.8-0.7c-0.5,0-1,0.1-1.4,0.3c-0.4,0.2-0.8,0.3-1.1,0.6l-7.6,5.9     c-0.3,0.2-0.4,0.4-0.6,0.7c-0.1,0.3-0.2,0.5-0.2,0.8c0,0.3,0.1,0.8,0.4,1C503.2,282.3,503.5,282.5,504.1,282.5z"/>
			<path class="st19" d="M547.1,346.3c0.7,0,1.3-0.3,1.7-0.7c0.4-0.5,0.7-1.1,0.7-1.7v-47.8l36.7,49.3c0.2,0.3,0.5,0.4,0.9,0.6     c0.3,0.1,0.7,0.2,1.1,0.2c0.7,0,1.3-0.2,1.8-0.7c0.5-0.5,0.8-1.1,0.8-2v-54.7c0-0.7-0.2-1.3-0.6-1.7c-0.4-0.4-1-0.7-1.8-0.7     c-0.7,0-1.3,0.3-1.7,0.7c-0.4,0.5-0.7,1-0.7,1.7v48.1l-36.8-49.6c-0.3-0.3-0.5-0.6-1-0.7c-0.4-0.1-0.8-0.2-1.1-0.2     c-0.7,0-1.2,0.3-1.8,0.7c-0.4,0.4-0.7,1-0.7,1.8V344c0,0.7,0.2,1.2,0.6,1.7C545.8,346.1,546.4,346.3,547.1,346.3z"/>
			<path class="st19" d="M80.7,398.6c-0.9-0.2-1.7,0-2.6,0.4c-1.1,0.5-2.2,1-3.3,1.1c-1.2,0.3-2.4,0.3-3.5,0.3c-2.1,0-4-0.3-5.9-1     c-1.8-0.6-3.4-1.6-4.7-2.9c-1.4-1.3-2.4-3-3.2-4.9c-0.8-1.9-1.1-4.2-1.1-6.8c0-2.2,0.3-4.3,1-6.1c0.6-1.8,1.6-3.4,2.9-4.8     c1.3-1.4,2.8-2.4,4.6-3.1c1.8-0.8,3.9-1.1,6.2-1.1c1.2,0,2.5,0.1,3.6,0.3c1.1,0.3,2.2,0.7,3.2,1.1c0.9,0.4,1.7,0.6,2.6,0.5     c0.9-0.1,1.7-0.5,2.2-1.3c0.9-1.1,1.1-2.1,1-3.3c-0.2-1.1-0.8-2.1-1.9-2.6c-1.6-0.9-3.2-1.5-4.9-1.8c-1.8-0.4-3.6-0.6-5.5-0.6     c-3.4,0-6.5,0.6-9.3,1.7c-2.8,1.1-5.2,2.8-7.3,4.8c-2.1,2-3.7,4.5-4.8,7.3c-1.1,2.8-1.7,5.9-1.7,9.2c0,3.8,0.6,7.3,1.8,10.1     c1.2,2.9,2.9,5.3,5.1,7.3c2.1,1.9,4.6,3.4,7.4,4.4c2.7,1,5.7,1.5,8.7,1.5c1.2,0,2.4-0.1,3.7-0.3c1.2-0.3,2.4-0.5,3.6-0.9     s2.3-0.9,3.4-1.4c1.1-0.5,1.7-1.4,1.9-2.5c0.2-1.1-0.1-2.3-1-3.3C82.2,399.2,81.5,398.7,80.7,398.6z"/>
			<path class="st19" d="M125.7,368.4c-1.9-2.1-4.2-3.8-6.9-5c-2.6-1.2-5.6-1.8-8.8-1.8c-3.1,0-6.1,0.6-8.7,1.8     c-2.7,1.1-5,2.9-6.9,5c-2,2.2-3.5,4.6-4.5,7.4c-1.1,2.8-1.6,5.9-1.6,9.1s0.5,6.3,1.6,9.1c1.1,2.8,2.6,5.3,4.5,7.4     c1.9,2.1,4.3,3.8,6.9,5c2.7,1.2,5.6,1.8,8.7,1.8c3.2,0,6-0.6,8.8-1.8c2.6-1.1,5-2.9,6.9-5c2-2.2,3.5-4.6,4.5-7.4     c1.1-2.8,1.6-5.9,1.6-9.1s-0.5-6.3-1.6-9.1C129.1,373,127.6,370.5,125.7,368.4z M121.8,392.8c-1.1,2.4-2.7,4.2-4.7,5.6     c-2,1.4-4.4,2.1-7,2.1c-2.6,0-5-0.7-7-2.1s-3.6-3.2-4.7-5.6c-1.1-2.4-1.7-5-1.7-7.9c0-2.9,0.5-5.5,1.7-7.9     c1.1-2.4,2.7-4.2,4.7-5.6s4.4-2.1,7-2.1c2.6,0,5,0.7,7,2.1c2,1.4,3.6,3.2,4.7,5.6c1.1,2.4,1.8,5,1.8,7.9S122.9,390.4,121.8,392.8     z"/>
			<path class="st19" d="M173.2,362.3c-1.1,0-1.9,0.3-2.5,1c-0.6,0.7-1,1.6-1,2.6v28l-23.4-30.1c-0.3-0.4-0.8-0.8-1.4-1.1     c-0.6-0.3-1.2-0.3-1.8-0.3c-1.1,0-2,0.3-2.8,1.1c-0.8,0.7-1.1,1.7-1.1,2.8v37.8c0,1,0.3,1.9,1,2.6c0.7,0.7,1.5,1,2.5,1     c1.1,0,1.9-0.4,2.6-1c0.6-0.7,1-1.6,1-2.6v-27.6l23.5,30.2c0.3,0.4,0.7,0.6,1.3,0.8c0.5,0.2,1.1,0.3,1.7,0.3c1.1,0,2-0.3,2.8-1.1     c0.8-0.7,1.1-1.7,1.1-2.8v-37.8c0-1.1-0.3-1.9-1-2.6C175.1,362.6,174.3,362.3,173.2,362.3z"/>
			<path class="st19" d="M213.4,385.1c-1.2-1.1-2.9-1.9-4.8-2.5c-1.9-0.6-4.2-1.2-6.7-1.7c-2-0.3-3.7-0.8-5.1-1.3     c-1.4-0.5-2.5-1.1-3.2-2c-0.8-0.9-1.1-1.9-1.1-3.2c0-1.1,0.3-2.1,1-2.9c0.7-0.8,1.7-1.5,2.9-1.9c1.2-0.4,2.8-0.7,4.6-0.7     c1.1,0,2.3,0.2,3.6,0.5c1.3,0.4,2.5,0.9,3.7,1.4c1.2,0.6,2.1,1.1,2.8,1.7c0.5,0.4,1.1,0.6,1.7,0.6c1,0,1.8-0.3,2.5-1.1     c0.7-0.8,1.1-1.7,1.1-2.6c0-1.3-0.6-2.4-1.8-3.4c-1.5-1.3-3.4-2.4-5.8-3.2c-2.4-0.8-4.9-1.2-7.7-1.2c-2.9,0-5.6,0.5-8.1,1.6     c-2.4,1.1-4.4,2.5-5.8,4.5c-1.5,2-2.2,4.4-2.2,7.2c0,1.8,0.3,3.5,0.9,5c0.5,1.5,1.5,2.7,2.6,3.8c1.1,1,2.6,2,4.4,2.7     c1.8,0.7,3.9,1.2,6.1,1.6c2.4,0.3,4.5,0.9,6,1.5c1.6,0.6,2.7,1.3,3.5,2.3c0.8,1,1.1,2,1.1,3.3c0,1-0.4,2-1.2,2.9     c-0.9,0.9-1.9,1.5-3.2,2c-1.3,0.5-2.8,0.8-4.4,0.8c-2.4,0-4.4-0.4-5.9-1.1c-1.6-0.7-3.2-1.7-4.8-3.1c-0.6-0.5-1.4-0.8-2.2-0.8     c-1,0-1.9,0.3-2.6,1.1c-0.7,0.8-1.1,1.7-1.1,2.6c0,0.6,0.2,1.2,0.4,1.8c0.3,0.6,0.8,1.2,1.3,1.7c2.1,1.9,4.5,3.2,6.8,4     c2.4,0.8,5.1,1.1,8,1.1c2.9,0,5.6-0.5,8.1-1.7c2.4-1.1,4.5-2.6,6-4.6c1.5-2,2.3-4.5,2.3-7.3c0-2.2-0.4-4-1-5.6     C215.7,387.4,214.7,386.2,213.4,385.1z"/>
			<path class="st19" d="M254.1,362.3h-28.4c-1.1,0-2,0.3-2.8,1c-0.8,0.7-1.1,1.6-1.1,2.7s0.3,2,1.1,2.7c0.8,0.7,1.7,1.1,2.8,1.1     h10.1v33.9c0,1.1,0.3,2,1.1,2.8c0.8,0.8,1.7,1.1,3,1.1c1.2,0,2.3-0.3,3-1.1c0.8-0.7,1.2-1.7,1.2-2.8v-33.9h10.1     c1.1,0,2-0.3,2.8-1c0.8-0.7,1.1-1.6,1.1-2.7c0-1.1-0.3-2-1.1-2.7C256.1,362.6,255.2,362.3,254.1,362.3z"/>
			<path class="st19" d="M269,362.3c-1.2,0-2.2,0.3-3,1.1c-0.8,0.7-1.1,1.7-1.1,2.8v37.4c0,1.1,0.3,2,1.1,2.8     c0.7,0.8,1.7,1.1,2.9,1.1c1,0,2-0.3,2.8-1.1c0.8-0.7,1.2-1.7,1.2-2.8h0.1v-37.4c0-1.1-0.4-2-1.2-2.8     C270.9,362.6,270,362.3,269,362.3z"/>
			<path class="st19" d="M311.9,362.3h-28.4c-1.1,0-2,0.3-2.8,1c-0.8,0.7-1.1,1.6-1.1,2.7s0.4,2,1.1,2.7c0.8,0.7,1.7,1.1,2.8,1.1     h10.1v33.9c0,1.1,0.3,2,1.1,2.8c0.8,0.8,1.8,1.1,3,1.1c1.2,0,2.2-0.3,3-1.1c0.8-0.7,1.2-1.7,1.2-2.8v-33.9h10.1     c1.1,0,2-0.3,2.8-1c0.8-0.7,1.1-1.6,1.1-2.7c0-1.1-0.3-2-1.1-2.7C313.9,362.6,313.1,362.3,311.9,362.3z"/>
			<path class="st19" d="M354.4,362.2c-1.1,0-2,0.3-2.5,1.1c-0.6,0.7-1,1.7-1,2.8v23.4c0,2.2-0.5,4-1.5,5.6c-1,1.6-2.3,2.8-3.9,3.7     c-1.6,0.9-3.3,1.3-5.2,1.3c-1.7,0-3.3-0.4-4.8-1.3c-1.6-0.9-2.8-2.1-3.7-3.7c-1-1.6-1.4-3.4-1.4-5.6v-23.4c0-1.1-0.4-2-1.2-2.8     c-0.8-0.8-1.7-1.1-2.6-1.1c-1.2,0-2.2,0.3-3,1.1c-0.8,0.7-1.1,1.7-1.1,2.8v23.4c0,3.6,0.8,6.7,2.3,9.5c1.6,2.8,3.6,4.9,6.3,6.5     c2.7,1.6,5.8,2.4,9.3,2.4c3.6,0,6.6-0.8,9.3-2.4c2.6-1.6,4.7-3.7,6.2-6.5c1.5-2.8,2.3-5.9,2.3-9.5v-23.4c0-1.1-0.3-2-1-2.8     C356.5,362.5,355.6,362.2,354.4,362.2z"/>
			<path class="st19" d="M398.2,398.6c-0.9-0.2-1.8,0-2.6,0.4c-1,0.5-2.2,1-3.3,1.1c-1.2,0.3-2.4,0.3-3.5,0.3c-2.1,0-4-0.3-5.9-1     c-1.8-0.6-3.4-1.6-4.7-2.9c-1.4-1.3-2.4-3-3.1-4.9c-0.8-1.9-1.1-4.2-1.1-6.8c0-2.2,0.3-4.3,1-6.1c0.6-1.8,1.6-3.4,2.9-4.8     c1.3-1.4,2.8-2.4,4.6-3.1c1.8-0.8,3.9-1.1,6.2-1.1c1.2,0,2.4,0.1,3.6,0.3c1.1,0.3,2.2,0.7,3.2,1.1c0.9,0.4,1.8,0.6,2.6,0.5     c0.9-0.1,1.7-0.5,2.2-1.3c0.9-1.1,1.1-2.1,1-3.3c-0.2-1.1-0.8-2.1-1.9-2.6c-1.6-0.9-3.3-1.5-4.9-1.8c-1.8-0.4-3.6-0.6-5.5-0.6     c-3.4,0-6.5,0.6-9.3,1.7c-2.8,1.1-5.3,2.8-7.4,4.8c-2.1,2-3.7,4.5-4.8,7.3c-1.1,2.8-1.7,5.9-1.7,9.2c0,3.8,0.6,7.3,1.8,10.1     c1.2,2.9,2.9,5.3,5.1,7.3c2.1,1.9,4.6,3.4,7.4,4.4c2.7,1,5.7,1.5,8.7,1.5c1.2,0,2.4-0.1,3.7-0.3c1.2-0.3,2.4-0.5,3.6-0.9     c1.1-0.3,2.3-0.9,3.4-1.4c1-0.5,1.7-1.4,1.9-2.5c0.2-1.1-0.1-2.3-1-3.3C399.8,399.2,399.1,398.7,398.2,398.6z"/>
			<path class="st19" d="M412.2,362.3c-1.2,0-2.2,0.3-3,1.1c-0.8,0.7-1.1,1.7-1.1,2.8v37.4c0,1.1,0.3,2,1.1,2.8     c0.7,0.8,1.7,1.1,2.9,1.1c1,0,2-0.3,2.8-1.1c0.8-0.7,1.2-1.7,1.2-2.8h0.1v-37.4c0-1.1-0.4-2-1.2-2.8     C414.1,362.6,413.2,362.3,412.2,362.3z"/>
			<path class="st19" d="M460.8,368.4c-1.9-2.1-4.2-3.8-6.9-5c-2.6-1.2-5.6-1.8-8.7-1.8c-3.1,0-6.1,0.6-8.7,1.8     c-2.7,1.1-5,2.9-6.9,5c-2,2.2-3.5,4.6-4.5,7.4c-1.1,2.8-1.6,5.9-1.6,9.1s0.5,6.3,1.6,9.1c1.1,2.8,2.6,5.3,4.5,7.4     c1.9,2.1,4.3,3.8,6.9,5c2.7,1.2,5.6,1.8,8.7,1.8c3.1,0,6-0.6,8.7-1.8c2.6-1.1,5-2.9,6.9-5c2-2.2,3.5-4.6,4.5-7.4     c1-2.8,1.6-5.9,1.6-9.1s-0.5-6.3-1.6-9.1C464.2,373,462.8,370.5,460.8,368.4z M456.9,392.8c-1.1,2.4-2.7,4.2-4.7,5.6     c-2,1.4-4.4,2.1-7,2.1c-2.6,0-5-0.7-7-2.1c-2-1.4-3.6-3.2-4.7-5.6c-1.1-2.4-1.7-5-1.7-7.9c0-2.9,0.5-5.5,1.7-7.9     c1.1-2.4,2.7-4.2,4.7-5.6c2-1.4,4.4-2.1,7-2.1c2.6,0,5,0.7,7,2.1c2,1.4,3.6,3.2,4.7,5.6c1.1,2.4,1.8,5,1.8,7.9     S458,390.4,456.9,392.8z"/>
			<path class="st19" d="M508.3,362.3c-1.1,0-1.9,0.3-2.5,1c-0.6,0.7-1,1.6-1,2.6v28l-23.4-30.1c-0.3-0.4-0.8-0.8-1.4-1.1     c-0.6-0.3-1.2-0.3-1.8-0.3c-1.1,0-2,0.3-2.8,1.1c-0.8,0.7-1.1,1.7-1.1,2.8v37.8c0,1,0.4,1.9,1,2.6c0.7,0.7,1.5,1,2.5,1     c1.1,0,1.9-0.4,2.6-1c0.6-0.7,1-1.6,1-2.6v-27.6l23.5,30.2c0.3,0.4,0.8,0.6,1.3,0.8c0.5,0.2,1.1,0.3,1.7,0.3c1.1,0,2-0.3,2.8-1.1     c0.8-0.7,1.1-1.7,1.1-2.8v-37.8c0-1.1-0.3-1.9-1-2.6C510.2,362.6,509.4,362.3,508.3,362.3z"/>
			<path class="st19" d="M541,364.6c-0.3-0.9-0.8-1.5-1.5-1.9c-0.7-0.4-1.4-0.7-2.2-0.7c-0.8-0.1-1.6,0.2-2.3,0.6     c-0.7,0.4-1.2,1.1-1.6,2l-16,38.8c-0.1,0.4-0.2,0.9-0.2,1.2c0,0.9,0.3,1.7,0.9,2.4c0.5,0.6,1.4,1,2.5,1c0.7,0,1.4-0.3,2-0.7     c0.6-0.4,1.1-1.1,1.4-1.9l3.3-7.9h19.1l3.4,8c0.3,0.8,0.9,1.5,1.5,1.9c0.6,0.4,1.3,0.7,2.1,0.7c0.9,0,1.7-0.4,2.5-1.1     c0.8-0.7,1.1-1.7,1.1-2.8c0-0.5-0.2-1-0.3-1.6L541,364.6z M530.5,390l6.4-15.2l6.5,15.2H530.5z"/>
			<path class="st19" d="M590,401c-0.8-0.7-1.7-1-2.8-1v-0.1h-16.7v-33.8c0-1.1-0.4-2-1.2-2.8s-1.7-1.1-2.7-1.1     c-1.2,0-2.2,0.3-3,1.1c-0.8,0.7-1.1,1.7-1.1,2.8v37.4c0,1.1,0.3,2,1.1,2.8c0.8,0.8,1.7,1.1,2.8,1.1h20.8c1.1,0,2-0.4,2.8-1.1     c0.8-0.7,1.1-1.7,1.1-2.7C591.1,402.7,590.8,401.7,590,401z"/>
		</g>
	</g>
</g>
</svg>